<svg width="18" height="20" viewBox="0 0 18 20" fill="none" xmlns="http://www.w3.org/2000/svg">
<g clip-path="url(#clip0_1314_4972)">
<path d="M14.625 8.65875C14.625 10.3621 14.1012 11.9355 13.2188 13.2121L17.6695 17.9138C18.109 18.3777 18.109 19.131 17.6695 19.5949C17.2301 20.0588 16.5164 20.0588 16.077 19.5949L11.6262 14.8931C10.4168 15.8283 8.92617 16.3775 7.3125 16.3775C3.27305 16.3775 0 12.9226 0 8.65875C0 4.39489 3.27305 0.940002 7.3125 0.940002C11.352 0.940002 14.625 4.39489 14.625 8.65875ZM7.3125 14.0025C7.97732 14.0025 8.63563 13.8643 9.24984 13.5957C9.86405 13.3272 10.4221 12.9336 10.8922 12.4374C11.3623 11.9411 11.7352 11.3521 11.9896 10.7037C12.2441 10.0554 12.375 9.3605 12.375 8.65875C12.375 7.957 12.2441 7.26212 11.9896 6.61379C11.7352 5.96545 11.3623 5.37636 10.8922 4.88015C10.4221 4.38394 9.86405 3.99032 9.24984 3.72177C8.63563 3.45322 7.97732 3.315 7.3125 3.315C6.64768 3.315 5.98938 3.45322 5.37517 3.72177C4.76095 3.99032 4.20287 4.38394 3.73277 4.88015C3.26268 5.37636 2.88977 5.96545 2.63536 6.61379C2.38095 7.26212 2.25 7.957 2.25 8.65875C2.25 9.3605 2.38095 10.0554 2.63536 10.7037C2.88977 11.3521 3.26268 11.9411 3.73277 12.4374C4.20287 12.9336 4.76095 13.3272 5.37517 13.5957C5.98938 13.8643 6.64768 14.0025 7.3125 14.0025Z" fill="#FFFFFF"/>
</g>
<defs>
<clipPath id="clip0_1314_4972">
<rect width="18" height="19" fill="white" transform="translate(0 0.940002)"/>
</clipPath>
</defs>
</svg>
